<svg width="123" height="139" viewBox="0 0 123 139" fill="none" xmlns="http://www.w3.org/2000/svg">
<path d="M113.6 138.152C106.176 138.152 101.44 133.288 99.392 123.56L96.448 109.352C95.5093 104.744 94.4427 101.245 93.248 98.856C92.1387 96.4667 90.56 94.8453 88.512 93.992C86.5493 93.1387 83.8187 92.712 80.32 92.712C79.1253 92.712 78.1867 93.0533 77.504 93.736C76.8213 94.3333 76.48 95.1013 76.48 96.04V128.04C76.48 129.832 76.8213 131.069 77.504 131.752C78.1867 132.349 79.7227 132.861 82.112 133.288L86.848 134.056C87.7867 134.227 88.256 134.696 88.256 135.464C88.256 136.488 87.616 137 86.336 137H60.352C59.072 137 58.432 136.531 58.432 135.592C58.432 134.824 58.9867 134.312 60.096 134.056L63.04 133.544C64.832 133.203 65.984 132.733 66.496 132.136C67.0933 131.539 67.392 130.344 67.392 128.552V53.288C67.392 51.496 67.0933 50.3013 66.496 49.704C65.984 49.1067 64.832 48.6373 63.04 48.296L60.096 47.784C58.9867 47.528 58.432 47.016 58.432 46.248C58.432 45.3093 59.072 44.84 60.352 44.84H86.336C91.3707 44.84 95.8507 45.8213 99.776 47.784C103.701 49.7467 106.773 52.4773 108.992 55.976C111.211 59.3893 112.32 63.3573 112.32 67.88C112.32 73.256 110.699 78.12 107.456 82.472C104.213 86.7387 100.117 89.768 95.168 91.56C94.5707 91.7307 94.2293 92.0293 94.144 92.456C94.144 92.7973 94.4427 93.096 95.04 93.352C97.7707 94.632 99.904 96.424 101.44 98.728C103.061 101.032 104.299 104.104 105.152 107.944L107.968 121C108.907 125.437 110.016 128.595 111.296 130.472C112.576 132.349 114.197 133.288 116.16 133.288C116.843 133.288 117.44 133.203 117.952 133.032C118.549 132.776 119.275 132.349 120.128 131.752C120.811 131.325 121.451 131.24 122.048 131.496C122.645 131.667 122.944 132.093 122.944 132.776C122.944 134.227 122.005 135.507 120.128 136.616C118.251 137.64 116.075 138.152 113.6 138.152ZM85.056 89.512C90.8587 89.512 95.2533 87.592 98.24 83.752C101.227 79.8267 102.72 74.6213 102.72 68.136C102.72 61.8213 100.971 56.9147 97.472 53.416C94.0587 49.832 89.3227 48.04 83.264 48.04C78.7413 48.04 76.48 49.7467 76.48 53.16V82.472C76.48 87.1653 79.3387 89.512 85.056 89.512Z" fill="#8F0E0E"/>
<path d="M57.6 94.152C50.176 94.152 45.44 89.288 43.392 79.56L40.448 65.352C39.5093 60.744 38.4427 57.2453 37.248 54.856C36.1387 52.4667 34.56 50.8453 32.512 49.992C30.5493 49.1387 27.8187 48.712 24.32 48.712C23.1253 48.712 22.1867 49.0533 21.504 49.736C20.8213 50.3333 20.48 51.1013 20.48 52.04V84.04C20.48 85.832 20.8213 87.0693 21.504 87.752C22.1867 88.3493 23.7227 88.8613 26.112 89.288L30.848 90.056C31.7867 90.2267 32.256 90.696 32.256 91.464C32.256 92.488 31.616 93 30.336 93H4.352C3.072 93 2.432 92.5307 2.432 91.592C2.432 90.824 2.98667 90.312 4.096 90.056L7.04 89.544C8.832 89.2027 9.984 88.7333 10.496 88.136C11.0933 87.5387 11.392 86.344 11.392 84.552V9.28799C11.392 7.496 11.0933 6.30133 10.496 5.70399C9.984 5.10666 8.832 4.63733 7.04 4.296L4.096 3.784C2.98667 3.52799 2.432 3.01599 2.432 2.24799C2.432 1.30933 3.072 0.839996 4.352 0.839996H30.336C35.3707 0.839996 39.8507 1.82133 43.776 3.784C47.7013 5.74666 50.7733 8.47733 52.992 11.976C55.2107 15.3893 56.32 19.3573 56.32 23.88C56.32 29.256 54.6987 34.12 51.456 38.472C48.2133 42.7387 44.1173 45.768 39.168 47.56C38.5707 47.7307 38.2293 48.0293 38.144 48.456C38.144 48.7973 38.4427 49.096 39.04 49.352C41.7707 50.632 43.904 52.424 45.44 54.728C47.0613 57.032 48.2987 60.104 49.152 63.944L51.968 77C52.9067 81.4373 54.016 84.5947 55.296 86.472C56.576 88.3493 58.1973 89.288 60.16 89.288C60.8427 89.288 61.44 89.2027 61.952 89.032C62.5493 88.776 63.2747 88.3493 64.128 87.752C64.8107 87.3253 65.4507 87.24 66.048 87.496C66.6453 87.6667 66.944 88.0933 66.944 88.776C66.944 90.2267 66.0053 91.5067 64.128 92.616C62.2507 93.64 60.0747 94.152 57.6 94.152ZM29.056 45.512C34.8587 45.512 39.2533 43.592 42.24 39.752C45.2267 35.8267 46.72 30.6213 46.72 24.136C46.72 17.8213 44.9707 12.9147 41.472 9.41599C38.0587 5.83199 33.3227 4.03999 27.264 4.03999C22.7413 4.03999 20.48 5.74666 20.48 9.16V38.472C20.48 43.1653 23.3387 45.512 29.056 45.512Z" fill="#8F0E0E"/>
</svg>
